<svg xmlns="http://www.w3.org/2000/svg" width="24.445" height="24.115" viewBox="0 0 24.445 24.115">
  <g id="layer1" transform="translate(1.007 -1037.364)">
    <path id="rect5192" d="M12.64,1A9.632,9.632,0,0,0,3,11.218l-.016.085L.4,25.117H24.843l-2.606-13.9A9.627,9.627,0,0,0,12.64,1Zm0,1.6a8.015,8.015,0,0,1,8,8.039H4.6a8.014,8.014,0,0,1,8.036-8.039ZM6.2,12.254H19.04C17.8,13.9,7.439,13.895,6.2,12.254Zm14.628.192,2.073,11.063H2.336l2.073-11.06c1.506,2.463,8.231,2.445,8.231,2.445S19.325,14.914,20.833,12.445Z" transform="translate(-1.405 1036.362)"/>
  </g>
</svg>
